<mxfile host="app.diagrams.net" modified="2021-10-20T04:32:52.799Z" agent="5.0 (Windows NT 10.0; Win64; x64) AppleWebKit/537.36 (KHTML, like Gecko) Chrome/94.0.4606.81 Safari/537.36" etag="ri3RU1UcaeRllBF82MPW" version="15.5.4" type="github">
  <diagram id="C5RBs43oDa-KdzZeNtuy" name="Page-1">
    <mxGraphModel dx="2844" dy="1474" grid="1" gridSize="10" guides="1" tooltips="1" connect="1" arrows="1" fold="1" page="1" pageScale="1" pageWidth="3300" pageHeight="4681" background="#114B5F" math="0" shadow="0">
      <root>
        <mxCell id="WIyWlLk6GJQsqaUBKTNV-0" />
        <mxCell id="WIyWlLk6GJQsqaUBKTNV-1" parent="WIyWlLk6GJQsqaUBKTNV-0" />
        <mxCell id="X0Pu3LgBEjpvohQE28Oq-0" value="&lt;b&gt;main&lt;/b&gt;" style="ellipse;whiteSpace=wrap;html=1;fillColor=#F45B69;strokeColor=#028090;fontColor=#E4FDE1;sketch=0;shadow=0;direction=east;" vertex="1" parent="WIyWlLk6GJQsqaUBKTNV-1">
          <mxGeometry x="1620" y="1860" width="120" height="80" as="geometry" />
        </mxCell>
        <mxCell id="X0Pu3LgBEjpvohQE28Oq-2" value="&lt;b&gt;GraphicalGame&lt;/b&gt;" style="ellipse;whiteSpace=wrap;html=1;fillColor=#F45B69;strokeColor=#028090;fontColor=#E4FDE1;sketch=0;shadow=0;direction=east;" vertex="1" parent="WIyWlLk6GJQsqaUBKTNV-1">
          <mxGeometry x="600" y="2070" width="120" height="80" as="geometry" />
        </mxCell>
        <mxCell id="X0Pu3LgBEjpvohQE28Oq-3" value="&lt;b&gt;ConsoleGame&lt;/b&gt;" style="ellipse;whiteSpace=wrap;html=1;fillColor=#F45B69;strokeColor=#028090;fontColor=#E4FDE1;sketch=0;shadow=0;direction=east;" vertex="1" parent="WIyWlLk6GJQsqaUBKTNV-1">
          <mxGeometry x="2280" y="2030" width="120" height="80" as="geometry" />
        </mxCell>
        <mxCell id="X0Pu3LgBEjpvohQE28Oq-4" value="" style="endArrow=none;html=1;rounded=0;entryX=0.5;entryY=1;entryDx=0;entryDy=0;exitX=0;exitY=0.375;exitDx=0;exitDy=0;startArrow=classicThin;startFill=1;labelBackgroundColor=#114B5F;strokeColor=#028090;fontColor=#E4FDE1;sketch=0;shadow=0;exitPerimeter=0;" edge="1" parent="WIyWlLk6GJQsqaUBKTNV-1" source="X0Pu3LgBEjpvohQE28Oq-3" target="X0Pu3LgBEjpvohQE28Oq-0">
          <mxGeometry width="50" height="50" relative="1" as="geometry">
            <mxPoint x="1530" y="2010" as="sourcePoint" />
            <mxPoint x="1580" y="1960" as="targetPoint" />
          </mxGeometry>
        </mxCell>
        <mxCell id="X0Pu3LgBEjpvohQE28Oq-6" value="" style="endArrow=none;html=1;exitX=0.98;exitY=0.343;exitDx=0;exitDy=0;entryX=0.5;entryY=1;entryDx=0;entryDy=0;strokeColor=#028090;rounded=0;startArrow=classicThin;startFill=1;labelBackgroundColor=#114B5F;fontColor=#E4FDE1;sketch=0;shadow=0;exitPerimeter=0;targetPerimeterSpacing=0;" edge="1" parent="WIyWlLk6GJQsqaUBKTNV-1" source="X0Pu3LgBEjpvohQE28Oq-2" target="X0Pu3LgBEjpvohQE28Oq-0">
          <mxGeometry width="50" height="50" relative="1" as="geometry">
            <mxPoint x="1740" y="2020" as="sourcePoint" />
            <mxPoint x="1790" y="1970" as="targetPoint" />
          </mxGeometry>
        </mxCell>
        <mxCell id="X0Pu3LgBEjpvohQE28Oq-9" value="&lt;b&gt;GuiGameModeWindow&lt;/b&gt;" style="ellipse;whiteSpace=wrap;html=1;fillColor=#F45B69;strokeColor=#028090;fontColor=#E4FDE1;sketch=0;shadow=0;direction=east;" vertex="1" parent="WIyWlLk6GJQsqaUBKTNV-1">
          <mxGeometry x="420" y="2350" width="150" height="80" as="geometry" />
        </mxCell>
        <mxCell id="X0Pu3LgBEjpvohQE28Oq-10" value="&lt;b&gt;GuiWelcomeWindow&lt;/b&gt;" style="ellipse;whiteSpace=wrap;html=1;fillColor=#F45B69;strokeColor=#028090;fontColor=#E4FDE1;sketch=0;shadow=0;direction=east;" vertex="1" parent="WIyWlLk6GJQsqaUBKTNV-1">
          <mxGeometry x="230" y="2350" width="130" height="80" as="geometry" />
        </mxCell>
        <mxCell id="X0Pu3LgBEjpvohQE28Oq-11" value="&lt;b&gt;GuiWindow&lt;/b&gt;" style="ellipse;whiteSpace=wrap;html=1;fillColor=#F45B69;strokeColor=#028090;fontColor=#E4FDE1;sketch=0;shadow=0;direction=east;" vertex="1" parent="WIyWlLk6GJQsqaUBKTNV-1">
          <mxGeometry x="780" y="3280" width="120" height="80" as="geometry" />
        </mxCell>
        <mxCell id="X0Pu3LgBEjpvohQE28Oq-12" value="&lt;b&gt;GuiHelpers&lt;/b&gt;" style="ellipse;whiteSpace=wrap;html=1;fillColor=#F45B69;strokeColor=#028090;fontColor=#E4FDE1;flipH=0;flipV=1;sketch=0;shadow=0;direction=east;" vertex="1" parent="WIyWlLk6GJQsqaUBKTNV-1">
          <mxGeometry x="390" y="3280" width="120" height="80" as="geometry" />
        </mxCell>
        <mxCell id="X0Pu3LgBEjpvohQE28Oq-13" value="&lt;b&gt;GuiSaveLoadWindow&lt;/b&gt;" style="ellipse;whiteSpace=wrap;html=1;fillColor=#F45B69;strokeColor=#028090;fontColor=#E4FDE1;sketch=0;shadow=0;direction=east;" vertex="1" parent="WIyWlLk6GJQsqaUBKTNV-1">
          <mxGeometry x="1360" y="2350" width="140" height="80" as="geometry" />
        </mxCell>
        <mxCell id="X0Pu3LgBEjpvohQE28Oq-14" value="&lt;b&gt;GuiGameWindow&lt;/b&gt;" style="ellipse;whiteSpace=wrap;html=1;fillColor=#F45B69;strokeColor=#028090;fontColor=#E4FDE1;sketch=0;shadow=0;direction=east;" vertex="1" parent="WIyWlLk6GJQsqaUBKTNV-1">
          <mxGeometry x="1120" y="2350" width="120" height="80" as="geometry" />
        </mxCell>
        <mxCell id="X0Pu3LgBEjpvohQE28Oq-15" value="&lt;b&gt;GuiUserColorWindow&lt;/b&gt;" style="ellipse;whiteSpace=wrap;html=1;fillColor=#F45B69;strokeColor=#028090;fontColor=#E4FDE1;sketch=0;shadow=0;direction=east;" vertex="1" parent="WIyWlLk6GJQsqaUBKTNV-1">
          <mxGeometry x="900" y="2350" width="140" height="80" as="geometry" />
        </mxCell>
        <mxCell id="X0Pu3LgBEjpvohQE28Oq-16" value="&lt;b&gt;GuiDifficultyWindow&lt;/b&gt;" style="ellipse;whiteSpace=wrap;html=1;fillColor=#F45B69;strokeColor=#028090;fontColor=#E4FDE1;sketch=0;shadow=0;direction=east;" vertex="1" parent="WIyWlLk6GJQsqaUBKTNV-1">
          <mxGeometry x="740" y="2350" width="130" height="80" as="geometry" />
        </mxCell>
        <mxCell id="X0Pu3LgBEjpvohQE28Oq-17" value="" style="endArrow=classicThin;html=1;rounded=0;exitX=0.5;exitY=1;exitDx=0;exitDy=0;entryX=0.5;entryY=0;entryDx=0;entryDy=0;startArrow=none;startFill=0;endFill=1;labelBackgroundColor=#114B5F;strokeColor=#2D7600;fontColor=#E4FDE1;fillColor=#60a917;sketch=0;shadow=0;" edge="1" parent="WIyWlLk6GJQsqaUBKTNV-1" source="X0Pu3LgBEjpvohQE28Oq-2" target="X0Pu3LgBEjpvohQE28Oq-12">
          <mxGeometry width="50" height="50" relative="1" as="geometry">
            <mxPoint x="558.7835931288073" y="2391.7157287525383" as="sourcePoint" />
            <mxPoint x="161.20999999999958" y="2320" as="targetPoint" />
          </mxGeometry>
        </mxCell>
        <mxCell id="X0Pu3LgBEjpvohQE28Oq-18" value="" style="endArrow=classicThin;html=1;rounded=0;exitX=0.5;exitY=1;exitDx=0;exitDy=0;entryX=0.5;entryY=0;entryDx=0;entryDy=0;endFill=1;labelBackgroundColor=#114B5F;strokeColor=#2D7600;fontColor=#E4FDE1;fillColor=#60a917;sketch=0;shadow=0;" edge="1" parent="WIyWlLk6GJQsqaUBKTNV-1" source="X0Pu3LgBEjpvohQE28Oq-2" target="X0Pu3LgBEjpvohQE28Oq-11">
          <mxGeometry width="50" height="50" relative="1" as="geometry">
            <mxPoint x="620" y="2140" as="sourcePoint" />
            <mxPoint x="170" y="2580" as="targetPoint" />
          </mxGeometry>
        </mxCell>
        <mxCell id="X0Pu3LgBEjpvohQE28Oq-19" value="" style="endArrow=classicThin;html=1;rounded=0;entryX=0.5;entryY=0;entryDx=0;entryDy=0;endFill=1;labelBackgroundColor=#114B5F;strokeColor=#2D7600;fontColor=#E4FDE1;fillColor=#60a917;sketch=0;shadow=0;exitX=0.5;exitY=0;exitDx=0;exitDy=0;" edge="1" parent="WIyWlLk6GJQsqaUBKTNV-1" target="X0Pu3LgBEjpvohQE28Oq-10">
          <mxGeometry width="50" height="50" relative="1" as="geometry">
            <mxPoint x="660" y="2150" as="sourcePoint" />
            <mxPoint x="470" y="2580" as="targetPoint" />
          </mxGeometry>
        </mxCell>
        <mxCell id="X0Pu3LgBEjpvohQE28Oq-20" value="" style="endArrow=classicThin;html=1;rounded=0;exitX=0.5;exitY=1;exitDx=0;exitDy=0;entryX=0.5;entryY=0;entryDx=0;entryDy=0;endFill=1;labelBackgroundColor=#114B5F;strokeColor=#2D7600;fontColor=#E4FDE1;fillColor=#60a917;sketch=0;shadow=0;" edge="1" parent="WIyWlLk6GJQsqaUBKTNV-1" source="X0Pu3LgBEjpvohQE28Oq-2" target="X0Pu3LgBEjpvohQE28Oq-9">
          <mxGeometry width="50" height="50" relative="1" as="geometry">
            <mxPoint x="850" y="2120" as="sourcePoint" />
            <mxPoint x="750" y="2530" as="targetPoint" />
          </mxGeometry>
        </mxCell>
        <mxCell id="X0Pu3LgBEjpvohQE28Oq-21" value="" style="endArrow=classicThin;html=1;rounded=0;exitX=0.5;exitY=1;exitDx=0;exitDy=0;entryX=0.5;entryY=0;entryDx=0;entryDy=0;endFill=1;labelBackgroundColor=#114B5F;strokeColor=#2D7600;fontColor=#E4FDE1;fillColor=#60a917;sketch=0;shadow=0;" edge="1" parent="WIyWlLk6GJQsqaUBKTNV-1" source="X0Pu3LgBEjpvohQE28Oq-2" target="X0Pu3LgBEjpvohQE28Oq-16">
          <mxGeometry width="50" height="50" relative="1" as="geometry">
            <mxPoint x="799.9964068711934" y="2138.284271247462" as="sourcePoint" />
            <mxPoint x="837.5700000000002" y="2550" as="targetPoint" />
          </mxGeometry>
        </mxCell>
        <mxCell id="X0Pu3LgBEjpvohQE28Oq-22" value="" style="endArrow=classicThin;html=1;rounded=0;exitX=0.5;exitY=1;exitDx=0;exitDy=0;entryX=0.5;entryY=0;entryDx=0;entryDy=0;endFill=1;labelBackgroundColor=#114B5F;strokeColor=#2D7600;fontColor=#E4FDE1;fillColor=#60a917;sketch=0;shadow=0;" edge="1" parent="WIyWlLk6GJQsqaUBKTNV-1" source="X0Pu3LgBEjpvohQE28Oq-2" target="X0Pu3LgBEjpvohQE28Oq-15">
          <mxGeometry width="50" height="50" relative="1" as="geometry">
            <mxPoint x="850" y="2100" as="sourcePoint" />
            <mxPoint x="1050.0000000000005" y="2540" as="targetPoint" />
          </mxGeometry>
        </mxCell>
        <mxCell id="X0Pu3LgBEjpvohQE28Oq-24" value="&lt;b&gt;GameHandler&lt;/b&gt;" style="ellipse;whiteSpace=wrap;html=1;fillColor=#F45B69;strokeColor=#028090;fontColor=#E4FDE1;sketch=0;shadow=0;direction=east;" vertex="1" parent="WIyWlLk6GJQsqaUBKTNV-1">
          <mxGeometry x="1630" y="2350" width="120" height="80" as="geometry" />
        </mxCell>
        <mxCell id="X0Pu3LgBEjpvohQE28Oq-25" value="" style="endArrow=classicThin;html=1;rounded=0;exitX=0.5;exitY=1;exitDx=0;exitDy=0;entryX=0.5;entryY=0;entryDx=0;entryDy=0;endFill=1;labelBackgroundColor=#114B5F;strokeColor=#2D7600;fontColor=#E4FDE1;fillColor=#60a917;sketch=0;shadow=0;" edge="1" parent="WIyWlLk6GJQsqaUBKTNV-1" source="X0Pu3LgBEjpvohQE28Oq-2" target="X0Pu3LgBEjpvohQE28Oq-14">
          <mxGeometry width="50" height="50" relative="1" as="geometry">
            <mxPoint x="830" y="2080" as="sourcePoint" />
            <mxPoint x="1210" y="2520" as="targetPoint" />
          </mxGeometry>
        </mxCell>
        <mxCell id="X0Pu3LgBEjpvohQE28Oq-26" value="" style="endArrow=classicThin;html=1;rounded=0;exitX=0.5;exitY=1;exitDx=0;exitDy=0;entryX=0;entryY=0;entryDx=0;entryDy=0;endFill=1;labelBackgroundColor=#114B5F;strokeColor=#2D7600;fontColor=#E4FDE1;fillColor=#60a917;sketch=0;shadow=0;" edge="1" parent="WIyWlLk6GJQsqaUBKTNV-1" source="X0Pu3LgBEjpvohQE28Oq-2" target="X0Pu3LgBEjpvohQE28Oq-13">
          <mxGeometry width="50" height="50" relative="1" as="geometry">
            <mxPoint x="960" y="2070" as="sourcePoint" />
            <mxPoint x="1340" y="2510" as="targetPoint" />
          </mxGeometry>
        </mxCell>
        <mxCell id="X0Pu3LgBEjpvohQE28Oq-27" value="" style="endArrow=classicThin;html=1;rounded=0;exitX=0.5;exitY=1;exitDx=0;exitDy=0;entryX=0;entryY=0;entryDx=0;entryDy=0;endFill=1;labelBackgroundColor=#114B5F;strokeColor=#2D7600;fontColor=#E4FDE1;fillColor=#60a917;sketch=0;shadow=0;" edge="1" parent="WIyWlLk6GJQsqaUBKTNV-1" source="X0Pu3LgBEjpvohQE28Oq-2" target="X0Pu3LgBEjpvohQE28Oq-24">
          <mxGeometry width="50" height="50" relative="1" as="geometry">
            <mxPoint x="1170" y="1990" as="sourcePoint" />
            <mxPoint x="1550" y="2430" as="targetPoint" />
          </mxGeometry>
        </mxCell>
        <mxCell id="X0Pu3LgBEjpvohQE28Oq-31" value="" style="endArrow=classicThin;html=1;rounded=0;exitX=0.5;exitY=1;exitDx=0;exitDy=0;entryX=0.5;entryY=0;entryDx=0;entryDy=0;endFill=1;labelBackgroundColor=#114B5F;strokeColor=#A50040;fontColor=#E4FDE1;fillColor=#d80073;sketch=0;shadow=0;" edge="1" parent="WIyWlLk6GJQsqaUBKTNV-1" source="X0Pu3LgBEjpvohQE28Oq-10" target="X0Pu3LgBEjpvohQE28Oq-11">
          <mxGeometry width="50" height="50" relative="1" as="geometry">
            <mxPoint x="635" y="2270" as="sourcePoint" />
            <mxPoint x="300" y="2360" as="targetPoint" />
          </mxGeometry>
        </mxCell>
        <mxCell id="X0Pu3LgBEjpvohQE28Oq-32" value="" style="endArrow=classicThin;html=1;rounded=0;exitX=0.5;exitY=1;exitDx=0;exitDy=0;endFill=1;labelBackgroundColor=#114B5F;strokeColor=#A50040;fontColor=#E4FDE1;fillColor=#d80073;entryX=0.5;entryY=0;entryDx=0;entryDy=0;sketch=0;shadow=0;" edge="1" parent="WIyWlLk6GJQsqaUBKTNV-1" source="X0Pu3LgBEjpvohQE28Oq-10" target="X0Pu3LgBEjpvohQE28Oq-12">
          <mxGeometry width="50" height="50" relative="1" as="geometry">
            <mxPoint x="425" y="2330" as="sourcePoint" />
            <mxPoint x="410" y="3150" as="targetPoint" />
          </mxGeometry>
        </mxCell>
        <mxCell id="X0Pu3LgBEjpvohQE28Oq-33" value="&lt;b&gt;GuiButton&lt;/b&gt;" style="ellipse;whiteSpace=wrap;html=1;fillColor=#F45B69;strokeColor=#028090;fontColor=#E4FDE1;sketch=0;shadow=0;direction=east;" vertex="1" parent="WIyWlLk6GJQsqaUBKTNV-1">
          <mxGeometry x="1110" y="3280" width="120" height="80" as="geometry" />
        </mxCell>
        <mxCell id="X0Pu3LgBEjpvohQE28Oq-34" value="" style="endArrow=classicThin;html=1;rounded=0;exitX=0.5;exitY=1;exitDx=0;exitDy=0;entryX=0.5;entryY=0;entryDx=0;entryDy=0;endFill=1;labelBackgroundColor=#114B5F;strokeColor=#A50040;fontColor=#E4FDE1;fillColor=#d80073;sketch=0;shadow=0;" edge="1" parent="WIyWlLk6GJQsqaUBKTNV-1" source="X0Pu3LgBEjpvohQE28Oq-10" target="X0Pu3LgBEjpvohQE28Oq-33">
          <mxGeometry width="50" height="50" relative="1" as="geometry">
            <mxPoint x="184" y="2258.2799999999997" as="sourcePoint" />
            <mxPoint x="216.5735931287959" y="2549.9957287525303" as="targetPoint" />
          </mxGeometry>
        </mxCell>
        <mxCell id="X0Pu3LgBEjpvohQE28Oq-35" value="&lt;b&gt;GuiWidget&lt;/b&gt;" style="ellipse;whiteSpace=wrap;html=1;fillColor=#F45B69;strokeColor=#028090;fontColor=#E4FDE1;sketch=0;shadow=0;direction=east;" vertex="1" parent="WIyWlLk6GJQsqaUBKTNV-1">
          <mxGeometry x="1110" y="3570" width="120" height="80" as="geometry" />
        </mxCell>
        <mxCell id="X0Pu3LgBEjpvohQE28Oq-36" value="" style="endArrow=classicThin;html=1;rounded=0;endFill=1;entryX=0.5;entryY=0;entryDx=0;entryDy=0;labelBackgroundColor=#114B5F;strokeColor=#028090;fontColor=#E4FDE1;exitX=0.5;exitY=1;exitDx=0;exitDy=0;sketch=0;shadow=0;" edge="1" parent="WIyWlLk6GJQsqaUBKTNV-1" source="X0Pu3LgBEjpvohQE28Oq-33" target="X0Pu3LgBEjpvohQE28Oq-35">
          <mxGeometry width="50" height="50" relative="1" as="geometry">
            <mxPoint x="1070" y="3060" as="sourcePoint" />
            <mxPoint x="260" y="2940" as="targetPoint" />
          </mxGeometry>
        </mxCell>
        <mxCell id="X0Pu3LgBEjpvohQE28Oq-37" value="" style="endArrow=classicThin;html=1;rounded=0;exitX=0.5;exitY=1;exitDx=0;exitDy=0;entryX=0.5;entryY=0;entryDx=0;entryDy=0;endFill=1;labelBackgroundColor=#114B5F;strokeColor=#C73500;fontColor=#E4FDE1;fillColor=#fa6800;sketch=0;shadow=0;" edge="1" parent="WIyWlLk6GJQsqaUBKTNV-1" source="X0Pu3LgBEjpvohQE28Oq-9" target="X0Pu3LgBEjpvohQE28Oq-33">
          <mxGeometry width="50" height="50" relative="1" as="geometry">
            <mxPoint x="320.8576007919778" y="2278.3483350350407" as="sourcePoint" />
            <mxPoint x="597.5735931288073" y="2851.715728752539" as="targetPoint" />
          </mxGeometry>
        </mxCell>
        <mxCell id="X0Pu3LgBEjpvohQE28Oq-38" value="" style="endArrow=classicThin;html=1;rounded=0;endFill=1;labelBackgroundColor=#114B5F;strokeColor=#C73500;fontColor=#E4FDE1;fillColor=#fa6800;sketch=0;shadow=0;" edge="1" parent="WIyWlLk6GJQsqaUBKTNV-1" source="X0Pu3LgBEjpvohQE28Oq-9" target="X0Pu3LgBEjpvohQE28Oq-12">
          <mxGeometry width="50" height="50" relative="1" as="geometry">
            <mxPoint x="489.8517190942673" y="2320.001135726903" as="sourcePoint" />
            <mxPoint x="239.99640687120495" y="2613.26572875253" as="targetPoint" />
          </mxGeometry>
        </mxCell>
        <mxCell id="X0Pu3LgBEjpvohQE28Oq-39" value="" style="endArrow=classicThin;html=1;rounded=0;exitX=0.5;exitY=1;exitDx=0;exitDy=0;entryX=0.5;entryY=0;entryDx=0;entryDy=0;endFill=1;labelBackgroundColor=#114B5F;strokeColor=#C73500;fontColor=#E4FDE1;fillColor=#fa6800;sketch=0;shadow=0;" edge="1" parent="WIyWlLk6GJQsqaUBKTNV-1" source="X0Pu3LgBEjpvohQE28Oq-9" target="X0Pu3LgBEjpvohQE28Oq-11">
          <mxGeometry width="50" height="50" relative="1" as="geometry">
            <mxPoint x="599.8517190942675" y="2290.001135726903" as="sourcePoint" />
            <mxPoint x="349.99640687120495" y="2583.26572875253" as="targetPoint" />
          </mxGeometry>
        </mxCell>
        <mxCell id="X0Pu3LgBEjpvohQE28Oq-40" value="" style="endArrow=classicThin;html=1;rounded=0;exitX=0.5;exitY=1;exitDx=0;exitDy=0;entryX=0.5;entryY=0;entryDx=0;entryDy=0;endFill=1;labelBackgroundColor=#114B5F;strokeColor=#d79b00;fontColor=#E4FDE1;fillColor=#ffcd28;gradientColor=#ffa500;sketch=0;shadow=0;" edge="1" parent="WIyWlLk6GJQsqaUBKTNV-1" source="X0Pu3LgBEjpvohQE28Oq-16" target="X0Pu3LgBEjpvohQE28Oq-33">
          <mxGeometry width="50" height="50" relative="1" as="geometry">
            <mxPoint x="810" y="2490" as="sourcePoint" />
            <mxPoint x="965" y="2930" as="targetPoint" />
          </mxGeometry>
        </mxCell>
        <mxCell id="X0Pu3LgBEjpvohQE28Oq-41" value="" style="endArrow=classicThin;html=1;rounded=0;exitX=0.5;exitY=1;exitDx=0;exitDy=0;entryX=0.5;entryY=0;entryDx=0;entryDy=0;endFill=1;labelBackgroundColor=#114B5F;strokeColor=#d79b00;fontColor=#E4FDE1;fillColor=#ffcd28;gradientColor=#ffa500;sketch=0;shadow=0;" edge="1" parent="WIyWlLk6GJQsqaUBKTNV-1" source="X0Pu3LgBEjpvohQE28Oq-16" target="X0Pu3LgBEjpvohQE28Oq-12">
          <mxGeometry width="50" height="50" relative="1" as="geometry">
            <mxPoint x="769.2926901792098" y="2428.4401038884916" as="sourcePoint" />
            <mxPoint x="202.42640687119228" y="2571.7157287525383" as="targetPoint" />
          </mxGeometry>
        </mxCell>
        <mxCell id="X0Pu3LgBEjpvohQE28Oq-42" value="" style="endArrow=classicThin;html=1;rounded=0;exitX=0.5;exitY=1;exitDx=0;exitDy=0;entryX=0.5;entryY=0;entryDx=0;entryDy=0;endFill=1;labelBackgroundColor=#114B5F;strokeColor=#d79b00;fontColor=#E4FDE1;fillColor=#ffcd28;gradientColor=#ffa500;sketch=0;shadow=0;" edge="1" parent="WIyWlLk6GJQsqaUBKTNV-1" source="X0Pu3LgBEjpvohQE28Oq-16" target="X0Pu3LgBEjpvohQE28Oq-11">
          <mxGeometry width="50" height="50" relative="1" as="geometry">
            <mxPoint x="798.4326901792097" y="2540.000103888491" as="sourcePoint" />
            <mxPoint x="541.5664068711933" y="2963.2757287525383" as="targetPoint" />
          </mxGeometry>
        </mxCell>
        <mxCell id="X0Pu3LgBEjpvohQE28Oq-43" value="" style="endArrow=classicThin;html=1;rounded=0;endFill=1;labelBackgroundColor=#114B5F;strokeColor=#996185;fontColor=#E4FDE1;fillColor=#e6d0de;gradientColor=#d5739d;sketch=0;shadow=0;exitX=0.5;exitY=1;exitDx=0;exitDy=0;" edge="1" parent="WIyWlLk6GJQsqaUBKTNV-1" source="X0Pu3LgBEjpvohQE28Oq-15" target="X0Pu3LgBEjpvohQE28Oq-33">
          <mxGeometry width="50" height="50" relative="1" as="geometry">
            <mxPoint x="912.5700000000002" y="2450" as="sourcePoint" />
            <mxPoint x="839.9964068711934" y="2861.7157287525383" as="targetPoint" />
          </mxGeometry>
        </mxCell>
        <mxCell id="X0Pu3LgBEjpvohQE28Oq-44" value="" style="endArrow=classicThin;html=1;rounded=0;exitX=0.5;exitY=1;exitDx=0;exitDy=0;entryX=0.5;entryY=0;entryDx=0;entryDy=0;endFill=1;labelBackgroundColor=#114B5F;strokeColor=#996185;fontColor=#E4FDE1;fillColor=#e6d0de;gradientColor=#d5739d;sketch=0;shadow=0;" edge="1" parent="WIyWlLk6GJQsqaUBKTNV-1" source="X0Pu3LgBEjpvohQE28Oq-15" target="X0Pu3LgBEjpvohQE28Oq-12">
          <mxGeometry width="50" height="50" relative="1" as="geometry">
            <mxPoint x="1070.502525316942" y="2570.004271247462" as="sourcePoint" />
            <mxPoint x="359.99999999999955" y="2741.7200000000003" as="targetPoint" />
          </mxGeometry>
        </mxCell>
        <mxCell id="X0Pu3LgBEjpvohQE28Oq-45" value="" style="endArrow=classicThin;html=1;rounded=0;exitX=0.5;exitY=1;exitDx=0;exitDy=0;entryX=0.5;entryY=0;entryDx=0;entryDy=0;endFill=1;labelBackgroundColor=#114B5F;strokeColor=#996185;fontColor=#E4FDE1;fillColor=#e6d0de;gradientColor=#d5739d;sketch=0;shadow=0;" edge="1" parent="WIyWlLk6GJQsqaUBKTNV-1" source="X0Pu3LgBEjpvohQE28Oq-15" target="X0Pu3LgBEjpvohQE28Oq-11">
          <mxGeometry width="50" height="50" relative="1" as="geometry">
            <mxPoint x="1120.0000000000005" y="2560" as="sourcePoint" />
            <mxPoint x="670" y="3000" as="targetPoint" />
          </mxGeometry>
        </mxCell>
        <mxCell id="X0Pu3LgBEjpvohQE28Oq-50" value="&lt;b&gt;GuiGameBoard&lt;br&gt;&lt;/b&gt;" style="ellipse;whiteSpace=wrap;html=1;fillColor=#F45B69;strokeColor=#028090;fontColor=#E4FDE1;sketch=0;shadow=0;direction=east;" vertex="1" parent="WIyWlLk6GJQsqaUBKTNV-1">
          <mxGeometry x="1320" y="3280" width="120" height="80" as="geometry" />
        </mxCell>
        <mxCell id="X0Pu3LgBEjpvohQE28Oq-51" value="" style="endArrow=classicThin;html=1;rounded=0;exitX=0.5;exitY=1;exitDx=0;exitDy=0;endFill=1;labelBackgroundColor=#114B5F;fontColor=#E4FDE1;entryX=0.5;entryY=0;entryDx=0;entryDy=0;sketch=0;shadow=0;" edge="1" parent="WIyWlLk6GJQsqaUBKTNV-1" source="X0Pu3LgBEjpvohQE28Oq-14" target="X0Pu3LgBEjpvohQE28Oq-33">
          <mxGeometry width="50" height="50" relative="1" as="geometry">
            <mxPoint x="1050.0000000000005" y="2400" as="sourcePoint" />
            <mxPoint x="1130" y="3150" as="targetPoint" />
          </mxGeometry>
        </mxCell>
        <mxCell id="X0Pu3LgBEjpvohQE28Oq-53" value="" style="endArrow=classicThin;html=1;rounded=0;endFill=1;labelBackgroundColor=#114B5F;fontColor=#E4FDE1;entryX=0.5;entryY=0;entryDx=0;entryDy=0;exitX=0.5;exitY=1;exitDx=0;exitDy=0;sketch=0;shadow=0;" edge="1" parent="WIyWlLk6GJQsqaUBKTNV-1" source="X0Pu3LgBEjpvohQE28Oq-14" target="X0Pu3LgBEjpvohQE28Oq-50">
          <mxGeometry width="50" height="50" relative="1" as="geometry">
            <mxPoint x="1270" y="2440" as="sourcePoint" />
            <mxPoint x="1140.0000000000005" y="3160" as="targetPoint" />
          </mxGeometry>
        </mxCell>
        <mxCell id="X0Pu3LgBEjpvohQE28Oq-54" value="" style="endArrow=classicThin;html=1;rounded=0;endFill=1;labelBackgroundColor=#114B5F;fontColor=#E4FDE1;entryX=0.5;entryY=0;entryDx=0;entryDy=0;exitX=0.5;exitY=1;exitDx=0;exitDy=0;sketch=0;shadow=0;" edge="1" parent="WIyWlLk6GJQsqaUBKTNV-1" source="X0Pu3LgBEjpvohQE28Oq-14" target="X0Pu3LgBEjpvohQE28Oq-11">
          <mxGeometry width="50" height="50" relative="1" as="geometry">
            <mxPoint x="1240.0000000000005" y="2440" as="sourcePoint" />
            <mxPoint x="1410" y="3160" as="targetPoint" />
          </mxGeometry>
        </mxCell>
        <mxCell id="X0Pu3LgBEjpvohQE28Oq-55" value="" style="endArrow=classicThin;html=1;rounded=0;endFill=1;labelBackgroundColor=#114B5F;fontColor=#E4FDE1;exitX=0.5;exitY=1;exitDx=0;exitDy=0;entryX=0.5;entryY=0;entryDx=0;entryDy=0;sketch=0;shadow=0;" edge="1" parent="WIyWlLk6GJQsqaUBKTNV-1" source="X0Pu3LgBEjpvohQE28Oq-14" target="X0Pu3LgBEjpvohQE28Oq-12">
          <mxGeometry width="50" height="50" relative="1" as="geometry">
            <mxPoint x="1240.0000000000005" y="2440" as="sourcePoint" />
            <mxPoint x="410" y="3150" as="targetPoint" />
          </mxGeometry>
        </mxCell>
        <mxCell id="X0Pu3LgBEjpvohQE28Oq-56" value="&lt;b&gt;GuiSaveSlotButton&lt;br&gt;&lt;/b&gt;" style="ellipse;whiteSpace=wrap;html=1;fillColor=#F45B69;strokeColor=#028090;fontColor=#E4FDE1;sketch=0;shadow=0;direction=east;" vertex="1" parent="WIyWlLk6GJQsqaUBKTNV-1">
          <mxGeometry x="1510" y="3280" width="120" height="80" as="geometry" />
        </mxCell>
        <mxCell id="X0Pu3LgBEjpvohQE28Oq-57" value="" style="endArrow=classicThin;html=1;rounded=0;endFill=1;labelBackgroundColor=#114B5F;fontColor=#E4FDE1;entryX=0.5;entryY=0;entryDx=0;entryDy=0;exitX=0.5;exitY=1;exitDx=0;exitDy=0;fillColor=#d80073;strokeColor=#A50040;sketch=0;shadow=0;" edge="1" parent="WIyWlLk6GJQsqaUBKTNV-1" source="X0Pu3LgBEjpvohQE28Oq-13" target="X0Pu3LgBEjpvohQE28Oq-56">
          <mxGeometry width="50" height="50" relative="1" as="geometry">
            <mxPoint x="1460.0000000000005" y="2440" as="sourcePoint" />
            <mxPoint x="1570.0000000000005" y="3160" as="targetPoint" />
          </mxGeometry>
        </mxCell>
        <mxCell id="X0Pu3LgBEjpvohQE28Oq-58" value="" style="endArrow=classicThin;html=1;rounded=0;endFill=1;labelBackgroundColor=#114B5F;fontColor=#E4FDE1;fillColor=#d80073;strokeColor=#A50040;entryX=0.5;entryY=0;entryDx=0;entryDy=0;exitX=0.5;exitY=1;exitDx=0;exitDy=0;sketch=0;shadow=0;" edge="1" parent="WIyWlLk6GJQsqaUBKTNV-1" source="X0Pu3LgBEjpvohQE28Oq-13" target="X0Pu3LgBEjpvohQE28Oq-33">
          <mxGeometry width="50" height="50" relative="1" as="geometry">
            <mxPoint x="1450" y="2440" as="sourcePoint" />
            <mxPoint x="1660" y="3100" as="targetPoint" />
          </mxGeometry>
        </mxCell>
        <mxCell id="X0Pu3LgBEjpvohQE28Oq-59" value="" style="endArrow=classicThin;html=1;rounded=0;endFill=1;labelBackgroundColor=#114B5F;fontColor=#E4FDE1;fillColor=#d80073;strokeColor=#A50040;exitX=0.5;exitY=1;exitDx=0;exitDy=0;entryX=0.5;entryY=0;entryDx=0;entryDy=0;sketch=0;shadow=0;" edge="1" parent="WIyWlLk6GJQsqaUBKTNV-1" source="X0Pu3LgBEjpvohQE28Oq-13" target="X0Pu3LgBEjpvohQE28Oq-12">
          <mxGeometry width="50" height="50" relative="1" as="geometry">
            <mxPoint x="1500" y="2450" as="sourcePoint" />
            <mxPoint x="640" y="3150" as="targetPoint" />
          </mxGeometry>
        </mxCell>
        <mxCell id="X0Pu3LgBEjpvohQE28Oq-60" value="" style="endArrow=classicThin;html=1;rounded=0;endFill=1;labelBackgroundColor=#114B5F;fontColor=#E4FDE1;fillColor=#d80073;strokeColor=#A50040;entryX=0.5;entryY=0;entryDx=0;entryDy=0;exitX=0.5;exitY=1;exitDx=0;exitDy=0;sketch=0;shadow=0;" edge="1" parent="WIyWlLk6GJQsqaUBKTNV-1" source="X0Pu3LgBEjpvohQE28Oq-13" target="X0Pu3LgBEjpvohQE28Oq-11">
          <mxGeometry width="50" height="50" relative="1" as="geometry">
            <mxPoint x="1460" y="2440" as="sourcePoint" />
            <mxPoint x="1140.0000000000005" y="3160" as="targetPoint" />
          </mxGeometry>
        </mxCell>
        <mxCell id="X0Pu3LgBEjpvohQE28Oq-61" value="" style="endArrow=classicThin;html=1;rounded=0;endFill=1;labelBackgroundColor=#114B5F;fontColor=#E4FDE1;fillColor=#d80073;strokeColor=#A50040;entryX=0;entryY=0.5;entryDx=0;entryDy=0;exitX=1;exitY=0.5;exitDx=0;exitDy=0;sketch=0;shadow=0;" edge="1" parent="WIyWlLk6GJQsqaUBKTNV-1" source="X0Pu3LgBEjpvohQE28Oq-13" target="X0Pu3LgBEjpvohQE28Oq-24">
          <mxGeometry width="50" height="50" relative="1" as="geometry">
            <mxPoint x="1680" y="2430" as="sourcePoint" />
            <mxPoint x="460" y="3290" as="targetPoint" />
          </mxGeometry>
        </mxCell>
        <mxCell id="X0Pu3LgBEjpvohQE28Oq-62" value="&lt;b&gt;Minimax&lt;/b&gt;" style="ellipse;whiteSpace=wrap;html=1;fillColor=#F45B69;strokeColor=#028090;fontColor=#E4FDE1;sketch=0;shadow=0;direction=east;" vertex="1" parent="WIyWlLk6GJQsqaUBKTNV-1">
          <mxGeometry x="1700" y="2740" width="120" height="80" as="geometry" />
        </mxCell>
        <mxCell id="X0Pu3LgBEjpvohQE28Oq-63" value="" style="endArrow=classicThin;html=1;rounded=0;exitX=0.5;exitY=1;exitDx=0;exitDy=0;entryX=0.5;entryY=0;entryDx=0;entryDy=0;endFill=1;labelBackgroundColor=#114B5F;strokeColor=#d79b00;fontColor=#E4FDE1;fillColor=#ffcd28;gradientColor=#ffa500;sketch=0;shadow=0;" edge="1" parent="WIyWlLk6GJQsqaUBKTNV-1" source="X0Pu3LgBEjpvohQE28Oq-24" target="X0Pu3LgBEjpvohQE28Oq-62">
          <mxGeometry width="50" height="50" relative="1" as="geometry">
            <mxPoint x="785" y="2440" as="sourcePoint" />
            <mxPoint x="1180" y="3290" as="targetPoint" />
          </mxGeometry>
        </mxCell>
        <mxCell id="X0Pu3LgBEjpvohQE28Oq-64" value="" style="endArrow=classicThin;html=1;rounded=0;exitX=0.5;exitY=1;exitDx=0;exitDy=0;entryX=0.5;entryY=0;entryDx=0;entryDy=0;endFill=1;labelBackgroundColor=#114B5F;strokeColor=#C73500;fontColor=#E4FDE1;fillColor=#fa6800;sketch=0;shadow=0;" edge="1" parent="WIyWlLk6GJQsqaUBKTNV-1" source="X0Pu3LgBEjpvohQE28Oq-3" target="X0Pu3LgBEjpvohQE28Oq-24">
          <mxGeometry width="50" height="50" relative="1" as="geometry">
            <mxPoint x="1760" y="2240" as="sourcePoint" />
            <mxPoint x="2435.0000000000005" y="3090" as="targetPoint" />
          </mxGeometry>
        </mxCell>
        <mxCell id="X0Pu3LgBEjpvohQE28Oq-65" value="&lt;b&gt;Parser&lt;/b&gt;" style="ellipse;whiteSpace=wrap;html=1;fillColor=#F45B69;strokeColor=#028090;fontColor=#E4FDE1;sketch=0;shadow=0;direction=east;" vertex="1" parent="WIyWlLk6GJQsqaUBKTNV-1">
          <mxGeometry x="2620" y="2350" width="120" height="80" as="geometry" />
        </mxCell>
        <mxCell id="X0Pu3LgBEjpvohQE28Oq-66" value="" style="endArrow=classicThin;html=1;rounded=0;entryX=0.5;entryY=0;entryDx=0;entryDy=0;endFill=1;labelBackgroundColor=#114B5F;strokeColor=#C73500;fontColor=#E4FDE1;fillColor=#fa6800;sketch=0;shadow=0;" edge="1" parent="WIyWlLk6GJQsqaUBKTNV-1" target="X0Pu3LgBEjpvohQE28Oq-65">
          <mxGeometry width="50" height="50" relative="1" as="geometry">
            <mxPoint x="2340" y="2110" as="sourcePoint" />
            <mxPoint x="1700" y="2360" as="targetPoint" />
          </mxGeometry>
        </mxCell>
        <mxCell id="X0Pu3LgBEjpvohQE28Oq-67" value="" style="endArrow=classicThin;html=1;rounded=0;endFill=1;labelBackgroundColor=#114B5F;strokeColor=#996185;fontColor=#E4FDE1;fillColor=#e6d0de;gradientColor=#d5739d;sketch=0;shadow=0;exitX=0.5;exitY=1;exitDx=0;exitDy=0;entryX=0.5;entryY=0;entryDx=0;entryDy=0;" edge="1" parent="WIyWlLk6GJQsqaUBKTNV-1" source="X0Pu3LgBEjpvohQE28Oq-65" target="X0Pu3LgBEjpvohQE28Oq-68">
          <mxGeometry width="50" height="50" relative="1" as="geometry">
            <mxPoint x="2110" y="2280" as="sourcePoint" />
            <mxPoint x="2301.104690251113" y="3130.4420342931853" as="targetPoint" />
          </mxGeometry>
        </mxCell>
        <mxCell id="X0Pu3LgBEjpvohQE28Oq-68" value="&lt;b&gt;ChessGlobalDefinitions&lt;/b&gt;" style="ellipse;whiteSpace=wrap;html=1;fillColor=#F45B69;strokeColor=#028090;fontColor=#E4FDE1;sketch=0;shadow=0;direction=east;" vertex="1" parent="WIyWlLk6GJQsqaUBKTNV-1">
          <mxGeometry x="2480" y="3270" width="160" height="100" as="geometry" />
        </mxCell>
        <mxCell id="X0Pu3LgBEjpvohQE28Oq-69" value="&lt;b&gt;ArrayList&lt;br&gt;&lt;/b&gt;" style="ellipse;whiteSpace=wrap;html=1;fillColor=#F45B69;strokeColor=#028090;fontColor=#E4FDE1;sketch=0;shadow=0;direction=east;" vertex="1" parent="WIyWlLk6GJQsqaUBKTNV-1">
          <mxGeometry x="2070" y="3280" width="120" height="80" as="geometry" />
        </mxCell>
        <mxCell id="X0Pu3LgBEjpvohQE28Oq-70" value="" style="endArrow=classicThin;html=1;rounded=0;exitX=1;exitY=0.5;exitDx=0;exitDy=0;entryX=0;entryY=0.5;entryDx=0;entryDy=0;endFill=1;labelBackgroundColor=#114B5F;strokeColor=#80FF00;fontColor=#E4FDE1;fillColor=#f8cecc;sketch=0;shadow=0;gradientColor=#ea6b66;" edge="1" parent="WIyWlLk6GJQsqaUBKTNV-1" source="X0Pu3LgBEjpvohQE28Oq-69" target="X0Pu3LgBEjpvohQE28Oq-68">
          <mxGeometry width="50" height="50" relative="1" as="geometry">
            <mxPoint x="1860" y="2610" as="sourcePoint" />
            <mxPoint x="2535.0000000000005" y="3460" as="targetPoint" />
          </mxGeometry>
        </mxCell>
        <mxCell id="X0Pu3LgBEjpvohQE28Oq-71" value="&lt;b&gt;Game&lt;br&gt;&lt;/b&gt;" style="ellipse;whiteSpace=wrap;html=1;fillColor=#F45B69;strokeColor=#028090;fontColor=#E4FDE1;sketch=0;shadow=0;direction=east;" vertex="1" parent="WIyWlLk6GJQsqaUBKTNV-1">
          <mxGeometry x="2090" y="2740" width="120" height="80" as="geometry" />
        </mxCell>
        <mxCell id="X0Pu3LgBEjpvohQE28Oq-72" value="" style="endArrow=classicThin;html=1;rounded=0;endFill=1;labelBackgroundColor=#114B5F;strokeColor=#FF8000;fontColor=#E4FDE1;fillColor=#e6d0de;gradientColor=#d5739d;sketch=0;shadow=0;exitX=0.5;exitY=1;exitDx=0;exitDy=0;entryX=0.5;entryY=0;entryDx=0;entryDy=0;" edge="1" parent="WIyWlLk6GJQsqaUBKTNV-1" source="X0Pu3LgBEjpvohQE28Oq-71" target="X0Pu3LgBEjpvohQE28Oq-69">
          <mxGeometry width="50" height="50" relative="1" as="geometry">
            <mxPoint x="2340" y="2410" as="sourcePoint" />
            <mxPoint x="2220" y="3250" as="targetPoint" />
          </mxGeometry>
        </mxCell>
        <mxCell id="X0Pu3LgBEjpvohQE28Oq-73" value="" style="endArrow=classicThin;html=1;rounded=0;endFill=1;labelBackgroundColor=#114B5F;strokeColor=#FF8000;fontColor=#E4FDE1;fillColor=#e6d0de;gradientColor=#d5739d;sketch=0;shadow=0;exitX=0.5;exitY=1;exitDx=0;exitDy=0;entryX=0.5;entryY=0;entryDx=0;entryDy=0;" edge="1" parent="WIyWlLk6GJQsqaUBKTNV-1" source="X0Pu3LgBEjpvohQE28Oq-71" target="X0Pu3LgBEjpvohQE28Oq-68">
          <mxGeometry width="50" height="50" relative="1" as="geometry">
            <mxPoint x="2360" y="2440" as="sourcePoint" />
            <mxPoint x="2300" y="3290" as="targetPoint" />
          </mxGeometry>
        </mxCell>
        <mxCell id="X0Pu3LgBEjpvohQE28Oq-76" value="" style="endArrow=classicThin;html=1;rounded=0;endFill=1;labelBackgroundColor=#114B5F;strokeColor=#FF00FF;fontColor=#E4FDE1;fillColor=#e6d0de;gradientColor=#d5739d;sketch=0;shadow=0;exitX=1;exitY=0.5;exitDx=0;exitDy=0;entryX=0;entryY=0.5;entryDx=0;entryDy=0;" edge="1" parent="WIyWlLk6GJQsqaUBKTNV-1" source="X0Pu3LgBEjpvohQE28Oq-62" target="X0Pu3LgBEjpvohQE28Oq-71">
          <mxGeometry width="50" height="50" relative="1" as="geometry">
            <mxPoint x="1940" y="2820" as="sourcePoint" />
            <mxPoint x="1920" y="3280" as="targetPoint" />
          </mxGeometry>
        </mxCell>
      </root>
    </mxGraphModel>
  </diagram>
</mxfile>
